<?xml version="1.0" encoding="UTF-8"?>
<svg version="1.1" viewBox="0 0 2048 731" width="529" height="189" xmlns="http://www.w3.org/2000/svg">
<path transform="translate(0)" d="m0 0h2048v731h-2048z" fill="#FEFEFD"/>
<path transform="translate(514,33)" d="m0 0 6 1 16 10 22 12 23 12 24 11 34 15 40 15 22 8 37 11 34 7 16 3v179l-10 9-12 9-15 12-13 10-19 14-14 10-18 13-21 14-9 5-1-108-4-12-6-10-8-7-12-7v-28l-3-17-5-16-9-17-9-12-9-10-15-11-17-9-15-5-10-2-10-1h-15l-16 2-15 4-19 9-11 8-10 9-7 7-9 13-8 16-5 14-3 16-1 31-9 5-10 9-4 5-4 8-2 9v171l2 12 7 14 7 7 10 6 11 3 54 1-3 3-39 18-41 17-44 17-4 1-8-7-9-10-11-14-12-16-11-17-13-23-10-22-10-30-6-28-2-20v-251l37-7 31-8 36-12 25-9 32-13 42-19 28-14 23-13z" fill="#32239E"/>
<path transform="translate(507,167)" d="m0 0h17l13 2 16 6 13 8 10 9 7 7 8 13 5 11 4 17v21h-24l-29-1-1-18-6-12-8-7-10-4h-13l-12 6-7 8-4 9v52h124l9 1 6 4 4 5 1 4v123l-11 7-25 15-26 15-21 12-22 12-3 1h-106l-8-4-5-6-1-5v-169l3-7 7-6 3-1 15-1 1-1 1-52 3-14 5-13 10-16 11-11 14-10 14-6 11-3z" fill="#32239E"/>
<path transform="translate(858,48)" d="m0 0h44l15 2 17 4 16 6 14 8 13 12 8 13 5 13 2 11v13l-3 18-5 17-11 25-11 19-15 22-11 14-11 13-12 14-15 16-33 33-8 7-13 12-11 9-12 11-17 13-11 10-19 14-13 10-19 14-16 11-14 10-18 12-23 15-19 12-28 17-24 14-45 25-35 18-16 8-37 18-36 16-45 18-29 11-36 12-41 12-37 9-40 7-25 3-13 1h-29l-24-3-19-5-15-6-14-9-7-6-9-12-5-11-3-11-1-7v-11l3-20 5-17 9-20 11-20 10-15 10-14 11-14 12-14 9-10 7-8 15-16 18-18 8-7 15-14 8-7 11-10 14-11h2l1 33-5 5-14 12-15 14-13 12-15 15-7 8-9 9-9 11-9 10-13 17-13 18-15 26-7 16-5 15-2 10v15l3 10 5 9 7 7 10 6 18 6 24 4h34l34-4 28-5 32-7 36-10 52-17 42-16 45-19 24-11 29-14 44-22 22-12 27-15 21-12 20-12 24-15 19-12 37-25 18-13 17-12 13-10 12-9 13-10 17-14 11-9 14-12 8-7 10-9 13-12 36-36 7-8 9-10 9-11 14-18 14-21 9-16 8-17 5-15 3-15v-12l-4-13-8-11-10-7-11-5-21-5-13-1h-35l-23 2-32 5-36 8-29 8-7 1-19-5-23-8-1-2 29-9 28-8 32-8 35-7 28-4z" fill="#32239E"/>
<path transform="translate(780,426)" d="m0 0 3 1-9 29-9 22-8 16-11 20-10 15-12 16-9 11-13 15-25 25-11 9-15 13-19 14-17 11-18 11-27 14-26 11-23 8h-9l-16-5-25-10-29-14-24-14-11-8 1-2 21-8 28-12 33-15 29-14 42-21 23-13 24-13 24-14 25-15 16-10 22-14 24-16 36-25 18-13z" fill="#32239E"/>
<path transform="translate(812,379)" d="m0 0h88l17 3 12 5 6 5 6 9 3 8 1 6v11l-2 8-5 10-9 9-16 8-1 2 6 1 8 7 9 12 14 27 7 13v2h-51l-9-16-13-24-7-11-6-5-12-3v59h-46z" fill="#32239E"/>
<path transform="translate(1370,376)" d="m0 0h20l18 3 12 5 9 6 7 8 6 10 3 7v3l-13 3-24 4h-8l-4-8-5-4-10-3h-9l-11 3-10 9-5 10-2 12v16l2 12 4 10 5 6 8 5 10 2h8l14-3 11-5 1-4-1-10-29-1v-30h70v63l-11 7-16 8-18 6-12 2h-27l-16-3-13-5-12-8-9-9-8-14-5-14-2-11v-21l3-17 8-18 8-10 9-8 14-8 14-4z" fill="#32239E"/>
<path transform="translate(1918,379)" d="m0 0h40l1 5v122l-1 20h-24l-14-1v-13l-7 6-10 7-9 3h-16l-11-4-9-6-6-7-6-13-3-10-2-14v-11l3-14 5-12 9-10 11-7 11-3h12l13 4 11 7h1v-48z" fill="#32239E"/>
<path transform="translate(1166,379)" d="m0 0h41v74l5-4 8-10 9-10 7-9h50l-6 7-25 25-4 3 1 5 10 18 9 15 14 24 4 8h-45l-5-8-10-19-6-13h-3l-7 8-6 7v25h-42v-145z" fill="#32239E"/>
<path transform="translate(1654,417)" d="m0 0h27l16 3 9 4 8 6 5 7 3 10 1 8 1 60 4 10h-40l-3-10-5 2-5 4-12 5-8 2h-18l-13-3-9-6-6-7-3-7-1-10 2-9 6-9 9-6 11-4 35-8 13-4h2l-2-7-6-5h-16l-7 2-2 5-2 3h-15l-23-3-1-4 4-10 9-10 11-5 13-3z" fill="#32239E"/>
<path transform="translate(1475,420)" d="m0 0h40l1 59 2 10 5 5 3 1h7l6-3 5-8 1-5 1-58 1-1h40v106h-25l-13-1v-15l-8 7-8 6-9 4-5 1h-15l-10-3-9-6-7-10-2-5-2-15v-68z" fill="#32239E"/>
<path transform="translate(1078,417)" d="m0 0h20l17 3 10 5 5 4 9 13-1 4-27 3h-10l-8-8-2-1h-12l-5 3-2 2v6l16 4 27 5 13 5 9 8 5 9 1 4v11l-4 11-7 8-12 7-13 4-20 2-18-1-16-4-9-6-9-9-4-10v-3l25-3 13-1 3 2 3 5v2l10 4h8l9-3 3-5-1-5-5-3-41-9-10-5-6-5-5-8-2-6v-11l3-9 5-7 11-7 15-4z" fill="#32239D"/>
<path transform="translate(1809,417)" d="m0 0h9l13 4 3 2-2 6-10 22-3 1-5-2h-9l-8 7-3 7-2 20-1 41h-41v-105h38l1 3v11l3-4 7-8 6-4z" fill="#32239E"/>
<path transform="translate(508,342)" d="m0 0h15l12 5 6 5 7 11 2 8-1 13-6 12-9 8v40l-3 2h-31l-1-1-1-41-8-7-6-11-1-4v-14l4-10 9-10z" fill="#FEFEFD"/>
<path transform="translate(973,420)" d="m0 0h41v105l-1 1-40-1z" fill="#32239E"/>
<path transform="translate(1785,584)" d="m0 0h14l7 4 4 8 1 3 3-8 7-6 3-1h14l8 6 2 2v3l-8 1-5-3-6-1-4 4-1 8 2 5 1 1h7l8-3h7l1 2-4 5-9 5h-15l-7-6-5-10-26 1 2 5 6 2 9-4h8l-1 5-7 6-3 1h-14l-6-4-4-5-1-3v-11l4-7 5-4z" fill="#190F5A"/>
<path transform="translate(1895,448)" d="m0 0h7l7 3 6 7 3 10v8l-2 9-5 8-5 4-3 1h-8l-6-4-4-5-3-10v-13l3-9 4-6z" fill="#FEFEFD"/>
<path transform="translate(1411,572)" d="m0 0h12l7 2 6 7-1 4-10 3-3-2-2-5h-6l-5 5-1 3v13l3 6 2 2h8l4-6 1-4-9-1-1-5 2-2h19l1 4v10l-1 8-11 5h-19l-8-6-5-9-1-10 2-9 4-6 8-6z" fill="#190F5A"/>
<path transform="translate(1508,572)" d="m0 0 12 1v9l-1 5 8-3h7l6 4 3 8v10l-4 9-5 4h-9l-5-5-3 5h-10l-1-16 1-30z" fill="#22176D"/>
<path transform="translate(1652,572)" d="m0 0 11 1 5 5 2 4v8l-3 6-5 3-6 1h-11v19h-13v-46z" fill="#23176F"/>
<path transform="translate(973,379)" d="m0 0h41v27h-41z" fill="#32239C"/>
<path transform="translate(858,408)" d="m0 0h15l16 2 6 3 3 4 1 9-5 8-11 4h-25l-1-1v-27z" fill="#FEFEFD"/>
<path transform="translate(1715,584)" d="m0 0h14l6 4 4 5 1 3v11l-4 7-5 4-3 1h-14l-7-5-4-7v-11l4-7 5-4z" fill="#180E58"/>
<path transform="translate(1475,584)" d="m0 0h13l7 4 4 5 1 3v12l-4 6-5 4-3 1h-14l-8-6-3-6v-10l3-7 5-4z" fill="#23176F"/>
<path transform="translate(1282,584)" d="m0 0h13l5 3 5 6 1 2v12l-4 7-5 4-3 1h-14l-8-7-3-7v-7l3-7 7-6z" fill="#22176D"/>
<path transform="translate(844,584)" d="m0 0h14l7 5 3 5 1 11-3 7-6 6-3 1h-14l-8-6-3-6v-11l5-8z" fill="#190F5A"/>
<path transform="translate(1917,584)" d="m0 0h13l8 6 3 6v10l-3 7-6 5-3 1h-14l-8-7-3-8 1-10 7-8z" fill="#21166B"/>
<path transform="translate(1116,584)" d="m0 0h13l8 7 3 7v10l-7 8-5 3h-14l-7-5-4-7v-11l3-5 7-6z" fill="#22176D"/>
<path transform="translate(1565,584)" d="m0 0h9l5 2 5 5v28h-10l-2-4-2-1-2 4-1 1h-14l-4-5-1-8 3-5 15-4 6-2v-3l-20 4-3-1 1-4 7-6z" fill="#231870"/>
<path transform="translate(924,584)" d="m0 0h16l5 3 4 4 1 27-1 1h-10l-2-4-5 4h-13l-4-4-2-5 1-5 4-5 16-4 3-1v-3l-10 2-6 2h-6v-5l6-6z" fill="#22176E"/>
<path transform="translate(1190,584)" d="m0 0h17l5 3 1 3 3 1 1 27-1 1h-9l-2-5-6 5h-12l-5-4-2-7 2-5 3-3 16-4 4-4-11 2-6 2h-6l-1-2 3-5z" fill="#22176C"/>
<path transform="translate(1310,584)" d="m0 0h9l3 3 6-3h9l5 3 2 4v28h-12v-27l-8 1-1 1-1 25h-12l-1-1v-33z" fill="#231871"/>
<path transform="translate(1945,584)" d="m0 0h8l3 3 4-1 3-2h8l5 3 3 5v26l-1 1h-10l-1-1v-26l-8 1-1 1-1 25h-12l-1-1v-33z" fill="#1C1161"/>
<path transform="translate(1062,584)" d="m0 0h9l2 3 4-1 3-2h10l6 6 1 16v13h-12l-1-2v-25l-9 2-1 25h-12z" fill="#241872"/>
<path transform="translate(1023,584)" d="m0 0h10l2 3 4-2 1-1h11l5 5 1 2 1 27-1 1h-11v-27l-10 1-1 26h-12z" fill="#190E59"/>
<path transform="translate(792,573)" d="m0 0h13l1 1v13l-1 24h21l2 2v5l-2 1h-34z" fill="#1D1265"/>
<path transform="translate(882,584)" d="m0 0h15l6 4 4 4-1 4h-8l-4-3h-8l-2 3v11l1 3h9l6-3h7l1 4-7 6-5 2h-14l-5-3-5-6-2-9 1-6 6-8z" fill="#22176D"/>
<path transform="translate(1680,476)" d="m0 0h3l-1 13-3 7-5 5-9 4-7 1-8-3-4-6v-6l1-2h2v-2l11-5z" fill="#FEFEFD"/>
<path transform="translate(1824,584)" d="m0 0h14l8 6 2 2v3l-8 1-5-3-6-1-4 4-1 8 2 5 1 1h7l8-3h7l1 2-4 5-9 5h-15l-7-6-3-6-2-6 4-10 7-6z" fill="#1A105E"/>
<path transform="translate(1141,584)" d="m0 0h9l3 3 4 15 2 1 3-10 4-9h11l-1 6-8 19-4 9-2 1h-8l-4-5-9-24-1-5z" fill="#22176D"/>
<path transform="translate(1009,572)" d="m0 0 2 1v45l-1 1h-13l-1-1v-45z" fill="#241872"/>
<path transform="translate(1867,573)" d="m0 0 4 1v9l5 2 1 1v5l-7 1v19l7 2v6h-15l-4-6-1-4-1-16-5-5 4-4h2v-6l3-2 6-2z" fill="#22176E"/>
<path transform="translate(1760,573)" d="m0 0 2 1v8l7 4-1 5-6 1 1 19 5 2 1 5-1 1h-14l-5-8-2-19-3-2 1-5 4-2v-5l9-4z" fill="#22176E"/>
<path transform="translate(1232,573)" d="m0 0h3v11l7 1v6l-7 1 1 18 6 2v6l-1 1h-13l-4-4-2-8v-16h-5v-5l5-2 1-7 8-3z" fill="#22176D"/>
<path transform="translate(965,572)" d="m0 0 4 1v46h-12l-1-1v-45z" fill="#22176E"/>
<path transform="translate(1596,572)" d="m0 0h4v47h-13v-45l1-1z" fill="#23186F"/>
<path transform="translate(1444,573)" d="m0 0h13v46h-12l-1-1z" fill="#241872"/>
<path transform="translate(1527,584)" d="m0 0h7l6 4 3 8v10l-2 6-4 2h-3-3v-2h-7l-5-6v-8l3-6 4-2-2-5z" fill="#23186F"/>
<path transform="translate(1677,584)" d="m0 0h10l4 4 1-3 7-1 3 2-2 4-3 2-5 1-1 2-2 24h-12z" fill="#170D54"/>
<path transform="translate(1714,587)" d="m0 0h14l7 3 3 6h2v11h-2l-5 5h-2v-2h-5l-1 1h-6l-4-4v-12l3-4 4-1-5 1-5 2v-5z" fill="#23186F"/>
<path transform="translate(1116,584)" d="m0 0h13l8 7 3 7v10l-7 8-3 2h-6l-6-5v-2l9-1v-15l-3-2h-8l-1 16-2-1v-16l3-4v-2l-2-1z" fill="#190E5A"/>
<path transform="translate(1652,572)" d="m0 0 11 1 5 5 2 4v8l-3 6-5 3-6 1h-11v6h-1v-12l1-2 11-2 1-9-12-1v-5h-8l3-2z" fill="#22176E"/>
<path transform="translate(1203,595)" d="m0 0 4 1-1 15h-2l-1 4-4 4h-12l-5-4-2-7 2-5 3-3 16-4z" fill="#1A105D"/>
<path transform="translate(1247,584)" d="m0 0h12l1 2v33h-13z" fill="#241872"/>
<path transform="translate(1883,584)" d="m0 0h11l1 2v33h-13v-34z" fill="#231871"/>
<path transform="translate(1945,584)" d="m0 0h8l4 4-1 7h1v24h-12l-1-1v-33z" fill="#241872"/>
<path transform="translate(1779,587)" d="m0 0 2 1-2 3v3h3v11h2l3 5 5 1 9-4h8l-1 5-7 6-3 1h-14l-6-4-4-5-1-3v-11l4-7z" fill="#1A0F5D"/>
<path transform="translate(1064,585)" d="m0 0 10 4-1 7h1v23h-12v-32h2z" fill="#22176D"/>
<path transform="translate(1282,584)" d="m0 0h13l5 3 5 6 1 2v12l-4 7-5 4h-16l4-2-6-8 1-15 4-4 7 1v1h-7l-2 6v7l2 5 1 1h10l4 1 2-4v-8l-2-8-3-3-16-1z" fill="#1A0F5C"/>
<path transform="translate(1917,584)" d="m0 0h13l8 6 3 6v10l-3 7-6 5h-11l-1-2-5-3-2-7 1-11 2-1 1 13 3 3 4 1 6-1 4 1 2-3v-9l-2-8-5-2-12-2z" fill="#190F5A"/>
<path transform="translate(803,575)" d="m0 0h1l1 31-9 3h-2v-32z" fill="#22176B"/>
<path transform="translate(1426,593)" d="m0 0 6 1 4 5v10l-10 5-11-1-5 1-4-6 1-6 2 3 4 5h8l4-6 1-4-4-1h3v-2h-2v-2z" fill="#22176D"/>
<path transform="translate(1190,584)" d="m0 0h17l5 3 1 3h2v6l-2-1v-3l-5-1-1 1-13 2-6 2h-6l-1-2 3-5z" fill="#1B105F"/>
<path transform="translate(1332,588)" d="m0 0h8l1 10v15l-1 6h-8v-27h-6v-1l6-1z" fill="#241871"/>
<path transform="translate(1823,594)" d="m0 0h1v10l2 5 1 1h7l8-3h7l1 2-4 5-9 5h-9l-5-1 2-2-3-2-2-5h2l-1-2v-8z" fill="#1A0F5C"/>
<path transform="translate(1919,592)" d="m0 0h8l3 3v12l-3 4-5 1-5-3-1-2v-12z" fill="#FEFEFD"/>
<path transform="translate(1353,607)" d="m0 0h9l3 1v10l-2 7-6 5h-6l1-4 5-4v-2l-5-2-1-1v-9z" fill="#1B105F"/>
<path transform="translate(1823,587)" d="m0 0 3 2-4 10v10 2 3l4 2-1 1 3 2h-6l-7-6-3-6-2-6 8-10h2l1-3z" fill="#22176C"/>
<path transform="translate(1328,584)" d="m0 0h9l5 3 2 4v28l-9-1v-1h5v-25l-1-3-7-1 1 3-9 2-2 2-1 14h-1v-17l6-7z" fill="#190F5B"/>
<path transform="translate(1284,592)" d="m0 0h8l3 4v11l-3 4h-7l-3-3-1-4v-7z" fill="#FEFEFD"/>
<path transform="translate(849,591)" d="m0 0 7 2 1 1 1 9-2 6-2 2h-7l-3-4v-13z" fill="#FEFEFD"/>
<path transform="translate(924,584)" d="m0 0h16l5 3-1 3-5 1-1 2h-9l-8 3h-6v-5l6-6z" fill="#1B105F"/>
<path transform="translate(1717,592)" d="m0 0h8l3 3v13l-3 3h-6l-4-4v-12z" fill="#FEFEFD"/>
<path transform="translate(1517,580)" d="m0 0h2v7l5-1 2 2 2 3-6 2-2 5v8l4 5 7 1v2l4-1h2l3-3-1 5-5 4h-9l-7-8v-2l-3-1 3-15-1-5-1-4-3-1z" fill="#1B105E"/>
<path transform="translate(1477,592)" d="m0 0h8l3 3v13l-3 3h-6l-4-4v-12z" fill="#FEFEFD"/>
<path transform="translate(1118,592)" d="m0 0h6l4 3v13l-3 3h-7l-3-4v-12z" fill="#FEFEFD"/>
<path transform="translate(1475,584)" d="m0 0h13l7 4 4 5 1 3v12l-4 6-5 4h-6l-6-4v-2l7-1 2 1v2h2v-2h3l2-5 1-9-2-8h-3v-2l-6-1h-13z" fill="#190F5A"/>
<path transform="translate(1565,584)" d="m0 0h9l5 2v3l-7-1 1 3-9 2-4 2-8 1-3-1 1-4 7-6z" fill="#1A0F5C"/>
<path transform="translate(1402,576)" d="m0 0 2 1-3 4-1 4 3 1v20l-7 2-2-4-1-10 2-9 4-6z" fill="#22176E"/>
<path transform="translate(1522,592)" d="m0 0h6l3 4v11l-3 4h-5l-4-5v-8z" fill="#FEFEFD"/>
<path transform="translate(1694,584)" d="m0 0 7 1v4l-4 3-5 1-1 2-1 14-4 1-2-5-2-2 1-5 4-6 1-7 3 3 1-3z" fill="#241873"/>
<path transform="translate(938,603)" d="m0 0h1v7l-2 5-5 4h-13l-4-4v-3h2v2l6-2-2-3v-4l6-1-2 7 11-2z" fill="#1A0F5B"/>
<path transform="translate(888,584)" d="m0 0h9l6 4 4 4-1 4h-8l-4-3h-8l-3 5-1 8h-1v-11l1-3 4-3 6-1z" fill="#1A0F5C"/>
<path transform="translate(854,589)" d="m0 0 7 1 4 6v11l-3 5-5-1-1-3 1-6-1-8-5-2 3-1z" fill="#231870"/>
<path transform="translate(1047,590)" d="m0 0 3 1 3 11v4h-3v2h2l-1 2 1 1 1 4-1 2 5 1v1h-11v-27h-5v-1z" fill="#22176D"/>
<path transform="translate(1923,587)" d="m0 0 8 1 4 3 2 8v9l-3 4-6-2 1-3v-14l-3-3-4-2z" fill="#22176B"/>
<path transform="translate(1062,584)" d="m0 0h9l2 3 4-1 3-2h10l4 5-10-1v3l-9 3-1 2-1 18h-1v-23-2l-7-3-3 1z" fill="#190E59"/>
<path transform="translate(1779,587)" d="m0 0 2 1-2 3v3h3v17h-2l-1 2-2-5h-2l-1 2-1-3v-11l4-7z" fill="#22166C"/>
<path transform="translate(1559,604)" d="m0 0h5v2l-4 2 1 2h7l4-1 1-5h1v6l-7 9h-11v-3-10z" fill="#190E59"/>
<path transform="translate(1668,589)" d="m0 0 1 4-5 5-8 2h-11v6h-1v-12l1-2h12l-2 5 7-2v-2l5-3z" fill="#190F5A"/>
<path transform="translate(1646,580)" d="m0 0h9l2 1v9l-4 2h-7l-1-1v-10z" fill="#FEFEFD"/>
<path transform="translate(900,607)" d="m0 0h7l1 4-7 6-2 1h-8v-3l-4-2z" fill="#1A0F5C"/>
<path transform="translate(1708,592)" d="m0 0 1 4 2 1 2 14h-2l2 5-5-4-3-6-2 1v-11l2-3v2h2z" fill="#22176C"/>
<path transform="translate(836,593)" d="m0 0 2 1 3 8v12l-8-4-1-3v-11l3 1z" fill="#231870"/>
<path transform="translate(1652,572)" d="m0 0 11 1 3 3h-8v4h-13v-5h-8l3-2z" fill="#170D56"/>
<path transform="translate(1185,600)" d="m0 0 2 1-1 2h2l1 6 5 7v1h-7l-3-3-2 1-2-7 2-5z" fill="#22166C"/>
<path transform="translate(1340,589)" d="m0 0 4 2v28l-9-1v-1h5z" fill="#1C1161"/>
<path transform="translate(793,573)" d="m0 0h12l1 1v13l-1 15h-1l-1-26-7 2-2-1v32h-1z" fill="#190E59"/>
<path transform="translate(1353,607)" d="m0 0h9l3 1v10l-2 7-1-4-2-2v-8l-3 3-4-2-1 5h-1v-9z" fill="#261A7D"/>
<path transform="translate(1128,467)" d="m0 0 4 1 7 8 4 10v11l-4 11-2 3h-2l2-4 3-8v-7l-2-10 1-2-3 1-3-4v-5z" fill="#251975"/>
<path transform="translate(1418,592)" d="m0 0h19l1 4v10l-2 2-1-9-3-4-6-1-3 1v2h2v2h-8l-1-5z" fill="#1A0F5C"/>
<path transform="translate(1128,588)" d="m0 0 6 4 1 4-1 5h-2l-1 7h-3l-1-13-3-3 1-3z" fill="#231870"/>
<path transform="translate(1869,610)" d="m0 0 8 3v6h-15l-1-3h2l1-4h5z" fill="#1A0F5C"/>
<path transform="translate(1258,591)" d="m0 0h1l1 16v12h-12l1-3h2l3-5h2l1-4z" fill="#190E5A"/>
<path transform="translate(997,585)" d="m0 0h1v31h2l1-2v3l3-3 3-4 2 1 1-2v10h-13z" fill="#190F59"/>
<path transform="translate(1918,379)" d="m0 0h40l1 3-3 1-4-1h-35z" fill="#291D83"/>
<path transform="translate(702,82)" d="m0 0h10l-5 5v2l2 2-7-1-10-4 2-2z" fill="#251974"/>
<path transform="translate(1677,584)" d="m0 0 1 3h4l1 6h-1v8h-2l-1 3-1 14 2 1h-3z" fill="#281C80"/>
<path transform="translate(1094,592)" d="m0 0 2 2v24h-8l2-1 1-6 2-7z" fill="#160C51"/>
<path transform="translate(1273,499)" d="m0 0 4 4 12 21v1h-17v-1h12l-1-2-2-3-1-5-3-5-4-7z" fill="#261A78"/>
<path transform="translate(1247,573)" d="m0 0h12l1 5-1 2h-8l-4-1-1-5z" fill="#1D1265"/>
<path transform="translate(1969,592)" d="m0 0 5 4v16h-3l-2 2z" fill="#22176B"/>
<path transform="translate(1882,573)" d="m0 0h12l1 1v5l-1 1-12-1-1-5z" fill="#1D1265"/>
<path transform="translate(1305,485)" d="m0 0 2 3 6 11 9 10 10 7 10 5 3 2-7-1-12-7-10-9-7-9-4-8z" fill="#271B7C"/>
<path transform="translate(1715,584)" d="m0 0h14l6 4 4 5v7l-5-10-6-2-14-1z" fill="#1B105E"/>
<path transform="translate(749,345)" d="m0 0h2v2l-13 10-19 14-3-1 13-10 19-14z" fill="#271A7A"/>
<path transform="translate(1517,580)" d="m0 0h2v7l5-1 2 2 2 3-6 2-2 5-2-4v-5l-2-2v-3l-3-1z" fill="#1C1061"/>
<path transform="translate(1760,592)" d="m0 0h1l1 18 6 3 1 5h-14v-1h7l-4-5 2-1z" fill="#170D55"/>
<path transform="translate(1199,603)" d="m0 0h5v6l-5 2h-7l1-5z" fill="#FEFEFD"/>
<path transform="translate(1568,603)" d="m0 0 4 1v6l-4 1h-7l-2-3 6-4z" fill="#FEFEFD"/>
<path transform="translate(933,603)" d="m0 0h4l1 3-2 4-4 1h-7l1-5z" fill="#FEFEFD"/>
<path transform="translate(1251,461)" d="m0 0 3 3 17 29 1 5-3-3-6-9-8-16-4-7z" fill="#261A78"/>
<path transform="translate(1424,388)" d="m0 0 4 1 8 9 6 10 3 7v3h-7l4-2-5-11-7-11-6-5z" fill="#271A7A"/>
<path transform="translate(1761,584)" d="m0 0 7 1 1 5-7 2v18h-1v-23l-2-2z" fill="#21156F"/>
<path transform="translate(1012,388)" d="m0 0h1v18h-39l1-3 4 1h26l6-1z" fill="#1F1466"/>
<path transform="translate(1214,600)" d="m0 0h2l1 18-1 1h-9l-1-1v-5l1 3 6 1-1-4 1-1z" fill="#1B1060"/>
<path transform="translate(1893,591)" d="m0 0h1v27h-11l1-2 3-1 1-3 5-1z" fill="#160C51"/>
<path transform="translate(1694,584)" d="m0 0 7 1v4l-4 3h-6l1-7z" fill="#1E1267"/>
<path transform="translate(702,380)" d="m0 0h2v2l-19 13-10 7-3-1 16-11z" fill="#271B7B"/>
<path transform="translate(452,521)" d="m0 0h12v2l-13 6-4-1 5-4 1-1-3-1z" fill="#251974"/>
<path transform="translate(1581,590)" d="m0 0 3 1v28l-3-1z" fill="#231776"/>
<path transform="translate(1515,610)" d="m0 0 3 2v6l-1 1h-8l-1-2h3l-1-4z" fill="#170C54"/>
<path transform="translate(704,444)" d="m0 0h2l-1 3-22 14-3 2-3-1 17-11z" fill="#271A7A"/>
<path transform="translate(1122,425)" d="m0 0 4 1 5 5 7 9 1 5h-7l3-5-8-10z" fill="#251976"/>
<path transform="translate(1475,584)" d="m0 0h13l7 4 1 2h-5v-2l-6-1h-13z" fill="#1C1162"/>
<path transform="translate(660,403)" d="m0 0 2 2 5-1 4-1-5 5-9 5v-6z" fill="#231770"/>
<path transform="translate(1173,591)" d="m0 0 1 3-7 18h-3l5-13v-6z" fill="#1B105E"/>
<path transform="translate(1429,592)" d="m0 0h8l1 4v10l-2 2-1-9-3-4-3-1z" fill="#1C1162"/>
<path transform="translate(1236,612)" d="m0 0h6v6l-1 1h-13v-2h10v-2l-2-1z" fill="#1D1262"/>
<path transform="translate(1789,591)" d="m0 0 9 1v3l-13 1v-3z" fill="#FEFEFD"/>
<path transform="translate(965,572)" d="m0 0h3v12l-2-4-1-4h-7l-1-3z" fill="#180D56"/>
<path transform="translate(944,504)" d="m0 0h2l10 19v2h-7l4-2-9-17z" fill="#271A7A"/>
<path transform="translate(1407,602)" d="m0 0 2 3 4 5 7 1v1l-6 2-5-1-3-5z" fill="#241873"/>
<path transform="translate(917,465)" d="m0 0 4 1 7 7 9 14-1 3-4-7-2-1-4-8-7-7z" fill="#281B7D"/>
<path transform="translate(1166,380)" d="m0 0h40v3l-3-1h-37z" fill="#22176C"/>
<path transform="translate(1869,584)" d="m0 0h6l2 2v5h-7z" fill="#1A105E"/>
<path transform="translate(1009,572)" d="m0 0h1v5l-3 1v-2l-9-1v6h-1l-1-8z" fill="#170D56"/>
<path transform="translate(1009,609)" d="m0 0h1v9h-8l4-8 3 1z" fill="#160C51"/>
<path transform="translate(843,614)" d="m0 0 9 1v3h5v1h-14z" fill="#231871"/>
<path transform="translate(1918,589)" d="m0 0h8l4 5-3-1h-10l-1 2v-4z" fill="#1D1265"/>
<path transform="translate(1220,584)" d="m0 0h3l1 9-7-2v-5z" fill="#1D1264"/>
<path transform="translate(749,345)" d="m0 0h2v2l-13 10-4 2 2-4z" fill="#261A78"/>
<path transform="translate(1668,589)" d="m0 0 1 4-5 5-5 1 3-5 5-4z" fill="#1C1161"/>
<path transform="translate(1746,584)" d="m0 0h6l-3 7-5-1 1-5z" fill="#190F5A"/>
<path transform="translate(1248,584)" d="m0 0h11v5l-9-2-2 1z" fill="#1C1160"/>
<path transform="translate(1455,601)" d="m0 0h1l1 18-9-1v-1l7-1z" fill="#170D54"/>
<path transform="translate(780,426)" d="m0 0 3 1-2 6-3-1-1 2h-2v-5z" fill="#291C82"/>
<path transform="translate(1238,585)" d="m0 0h4v6h-7l2-5z" fill="#1B105F"/>
<path transform="translate(1310,584)" d="m0 0h9l2 2-1 3v-2l-10 1z" fill="#1D1263"/>
<path transform="translate(1062,584)" d="m0 0h9l4 5-6-1-4-2-3 1z" fill="#1B105F"/>
<path transform="translate(785,316)" d="m0 0h2l-2 4-7 6-3-1 7-6z" fill="#251975"/>
<path transform="translate(877,589)" d="m0 0v3l-3 4-2 7-2-2 1-6 5-5z" fill="#1C1162"/>
<path transform="translate(1945,584)" d="m0 0h8v4h-8z" fill="#1C1160"/>
<path transform="translate(1590,573)" d="m0 0h8l1 4-10-1z" fill="#160C51"/>
<path transform="translate(1598,610)" d="m0 0 2 4v4h-9l4-2 1-2z" fill="#160C52"/>
<path transform="translate(1285,520)" d="m0 0h2l2 5h-17v-1h12z" fill="#22176E"/>
<path transform="translate(1361,614)" d="m0 0h3v9l-2 2v-5l-2-1z" fill="#241871"/>
<path transform="translate(1113,585)" d="m0 0 3 1v2l2 1h-3l-1 3-4-3 1-3z" fill="#23186F"/>
<path transform="translate(873,608)" d="m0 0 3 3v2l4 2 6 2v1h-7l-6-7z" fill="#1C1163"/>
<path transform="translate(1815,610)" d="m0 0 7 6 6 2v1h-6l-7-6z" fill="#1E1366"/>
<path transform="translate(704,444)" d="m0 0h2l-1 3-9 6h-2v-2z" fill="#281C80"/>
<path transform="translate(1715,615)" d="m0 0 5 1 1 1 7 1v1h-14z" fill="#251975"/>
<path transform="translate(1704,605)" d="m0 0 3 3 4 6v3l-5-5-2-3z" fill="#1C1162"/>
<path transform="translate(947,599)" d="m0 0h1l1 15 1 4h-4z" fill="#170C54"/>
<path transform="translate(1853,585)" d="m0 0 3 1 1 7-5-3-1-3z" fill="#231773"/>
</svg>
